<svg xmlns="http://www.w3.org/2000/svg" width="24" height="24" viewBox="0 0 24 24">
  <g id="block_chain_selected" transform="translate(-645 -699)">
    <rect id="Rectangle_148326" data-name="Rectangle 148326" width="24" height="24" transform="translate(645 699)" fill="#fff"/>
    <g id="Group_69572" data-name="Group 69572" transform="translate(392.915 436.302)">
      <g id="Group_69571" data-name="Group 69571" transform="translate(253.085 264.698)">
        <path id="Path_61239" data-name="Path 61239" d="M-1718.5,1726.1l4.863-2.4,4.585,2.4-4.7,2.6Z" transform="translate(1724.785 -1723.698)" fill="#164669"/>
        <path id="Path_61240" data-name="Path 61240" d="M-1587.683,1811.982l-4.455,2.418v5.031l4.455-2.133Z" transform="translate(1603.838 -1808.766)" fill="#164669"/>
        <path id="Path_61241" data-name="Path 61241" d="M-1728.447,1811.2l4.518,2.486v5.014l-4.529-2.151Z" transform="translate(1734.311 -1808.016)" fill="#164669"/>
        <path id="Path_61242" data-name="Path 61242" d="M-1849.968,1968.25l4.74,2.28-4.74,2.6-4.782-2.6Z" transform="translate(1855.186 -1959.025)" fill="#164669"/>
        <path id="Path_61243" data-name="Path 61243" d="M-1583.108,1970.244l4.766-2.239,4.748,2.239-4.748,2.6Z" transform="translate(1595.195 -1958.79)" fill="#164669"/>
        <path id="Path_61244" data-name="Path 61244" d="M-1453.5,2052.506l-4.548,2.464v5.19l4.548-2.465Z" transform="translate(1475.499 -2040.23)" fill="#164669"/>
        <path id="Path_61245" data-name="Path 61245" d="M-1592.138,2052.506l4.447,2.482v5.242l-4.447-2.6v-5.12" transform="translate(1603.838 -2040.23)" fill="#164669"/>
        <path id="Path_61246" data-name="Path 61246" d="M-1728.458,2054.565l4.531-2.482v5.225l-4.531,2.447Z" transform="translate(1734.311 -2039.824)" fill="#164669"/>
        <path id="Path_61247" data-name="Path 61247" d="M-1860.33,2054.565l-4.585-2.482v5.26l4.585,2.413Z" transform="translate(1864.915 -2039.824)" fill="#164669"/>
      </g>
    </g>
  </g>
</svg>
