<svg xmlns="http://www.w3.org/2000/svg" width="24" height="24" viewBox="0 0 24 24"><defs><style>.a{fill:#17476b;}</style></defs><g transform="translate(18.602 17.486) rotate(180)"><path class="a" d="M13,6.885,7.223.282a.823.823,0,0,0-1.241,0L.2,6.885A.825.825,0,0,0,.825,8.253h3.3v8.408a.826.826,0,0,0,.825.825h3.3a.826.826,0,0,0,.825-.825V8.253h3.3A.825.825,0,0,0,13,6.885Z"/></g><g transform="translate(0 15.747)"><path class="a" d="M36.8,352v4.952H19.2V352H16v6.6a1.625,1.625,0,0,0,1.6,1.651H38.4A1.624,1.624,0,0,0,40,358.6V352Z" transform="translate(-16 -352)"/></g></svg>