<svg xmlns="http://www.w3.org/2000/svg" width="23.625" height="23.625" viewBox="0 0 23.625 23.625"><defs><style>.a{fill:#fff;}</style></defs><path class="a" d="M11.812,0A11.813,11.813,0,1,0,23.625,11.812,11.813,11.813,0,0,0,11.812,0Zm2.459,18.307q-.912.36-1.455.548a3.838,3.838,0,0,1-1.262.189A2.515,2.515,0,0,1,9.837,18.5a1.739,1.739,0,0,1-.611-1.367,4.966,4.966,0,0,1,.045-.659c.031-.224.08-.476.147-.759l.761-2.688c.067-.258.125-.5.171-.731a3.241,3.241,0,0,0,.068-.633.975.975,0,0,0-.212-.717,1.2,1.2,0,0,0-.813-.2,2.134,2.134,0,0,0-.605.09c-.2.063-.383.12-.529.176l.2-.828q.747-.3,1.43-.521a4.225,4.225,0,0,1,1.29-.218,2.468,2.468,0,0,1,1.692.53,1.761,1.761,0,0,1,.594,1.376q0,.175-.041.617a4.129,4.129,0,0,1-.152.811l-.757,2.68c-.062.215-.117.461-.167.736a3.892,3.892,0,0,0-.073.626.9.9,0,0,0,.239.728,1.338,1.338,0,0,0,.827.194,2.4,2.4,0,0,0,.626-.1,3.559,3.559,0,0,0,.506-.17ZM14.137,7.429a1.807,1.807,0,0,1-1.275.492,1.826,1.826,0,0,1-1.28-.492,1.571,1.571,0,0,1-.533-1.193,1.586,1.586,0,0,1,.533-1.2,1.812,1.812,0,0,1,1.28-.5,1.792,1.792,0,0,1,1.275.5,1.611,1.611,0,0,1,0,2.389Z"/></svg>