<svg xmlns="http://www.w3.org/2000/svg" width="18" height="14" viewBox="0 0 18 14">
  <path id="kpi_congif_white_24px_" data-name="kpi_congif_white_24px " d="M16.2,14H1.8A1.778,1.778,0,0,1,0,12.25V1.75A1.777,1.777,0,0,1,1.8,0H6.453A1.821,1.821,0,0,1,7.731.517L9,1.75h7.2A1.778,1.778,0,0,1,18,3.5v8.75A1.778,1.778,0,0,1,16.2,14ZM10.56,9.918h0a2.459,2.459,0,0,0,.39.226l.1.77a.333.333,0,0,0,.33.293H12.62a.333.333,0,0,0,.33-.293l.1-.77a2.456,2.456,0,0,0,.391-.227l.716.3a.324.324,0,0,0,.13.027.331.331,0,0,0,.286-.167l.623-1.076a.335.335,0,0,0-.086-.434l-.62-.47a1.73,1.73,0,0,0,.014-.227c0-.073,0-.145-.01-.227l.62-.47a.335.335,0,0,0,.086-.434l-.623-1.076a.331.331,0,0,0-.286-.167.324.324,0,0,0-.13.027l-.717.3a2.452,2.452,0,0,0-.39-.227l-.1-.77a.334.334,0,0,0-.33-.293H11.38a.334.334,0,0,0-.333.293l-.1.77a2.456,2.456,0,0,0-.391.227l-.716-.3a.324.324,0,0,0-.13-.027.331.331,0,0,0-.286.167L8.8,6.748a.336.336,0,0,0,.087.434l.62.47c-.007.066-.01.139-.01.223s0,.155.01.227l-.62.47a.336.336,0,0,0-.087.434l.624,1.076a.331.331,0,0,0,.286.167.324.324,0,0,0,.13-.027l.716-.3Zm1.454-.877A1.166,1.166,0,1,1,13.18,7.875,1.168,1.168,0,0,1,12.013,9.041Z" fill="#fff"/>
</svg>
