<?xml version="1.0" encoding="utf-8"?>
<!-- Generator: Adobe Illustrator 21.1.0, SVG Export Plug-In . SVG Version: 6.00 Build 0)  -->
<!DOCTYPE svg PUBLIC "-//W3C//DTD SVG 1.1//EN" "http://www.w3.org/Graphics/SVG/1.1/DTD/svg11.dtd">
<svg version="1.1" id="Layer_1" xmlns="http://www.w3.org/2000/svg" xmlns:xlink="http://www.w3.org/1999/xlink" x="0px" y="0px"
	 viewBox="0 0 51.3 56" style="enable-background:new 0 0 51.3 56;" xml:space="preserve">
<style type="text/css">
	.st0{fill:#FF3333;}
</style>
<title>power, logout, close, exit, interface icon</title>
<g>
	<path class="st0" d="M25.7,56c14.2,0,25.7-11.5,25.7-25.7c0-10.4-6.2-19.7-15.8-23.7c-1-0.5-2.2,0-2.6,1s0,2.2,1,2.6
		c0,0,0.1,0,0.1,0c11,4.6,16.3,17.3,11.7,28.3S28.4,54.9,17.3,50.3S1.1,33,5.7,22c2.2-5.3,6.4-9.5,11.7-11.7c1-0.4,1.5-1.6,1.1-2.6
		c-0.4-1-1.6-1.5-2.6-1.1c0,0-0.1,0-0.1,0C2.7,12.1-3.5,27.1,2,40.2C6,49.8,15.3,56,25.7,56z"/>
	<path class="st0" d="M23.7,2v26c0,1.1,0.9,2,2,2c1.1,0,2-0.9,2-2V2c0-1.1-0.9-2-2-2C24.6,0,23.7,0.9,23.7,2z"/>
</g>
</svg>
