<svg xmlns="http://www.w3.org/2000/svg" width="437.957" height="451.021" viewBox="0 0 437.957 451.021">
  <g id="enter_partner_info" transform="translate(-5.848 -7)">
    <path id="Path_42" data-name="Path 42" d="M162.153,24.968A12.525,12.525,0,1,0,144.44,42.681l22.38,22.378C84.565,69.133,17.981,133.742,10.776,215.15l1.851-3.207A29.834,29.834,0,0,1,38.4,197.069c.224,0,.446.02.67.026C53.18,138.43,104.333,94.059,166.31,90.2l-21.87,21.868a12.524,12.524,0,0,0,17.711,17.713L205.7,86.233a12.526,12.526,0,0,0,0-17.711Z" transform="translate(2.857 7.941)"/>
    <path id="Path_43" data-name="Path 43" d="M227.874,100.869A50.434,50.434,0,1,0,177.44,50.434a50.49,50.49,0,0,0,50.434,50.435Z" transform="translate(95.397 7)"/>
    <path id="Path_44" data-name="Path 44" d="M343.2,193.747V124.414A44.389,44.389,0,0,0,312.625,82.23l-.084-.028-26.676-4.417a4.471,4.471,0,0,0-5.513,2.743l-30.268,83.049a5.464,5.464,0,0,1-10.268,0L209.548,80.529a4.471,4.471,0,0,0-4.2-2.943c-.434,0-27.993,4.61-27.993,4.61a44.685,44.685,0,0,0-30.674,42.449v69.1a18.75,18.75,0,0,0,18.75,18.75h159.01A18.75,18.75,0,0,0,343.2,193.747Z" transform="translate(78.32 39.193)"/>
    <path id="Path_45" data-name="Path 45" d="M358.508,162.933c-1.047,14.332-12.8,23.108-27.139,24.147A140.157,140.157,0,0,1,202.316,302.537l21.868-21.868a12.525,12.525,0,1,0-17.713-17.713L162.92,306.509a12.525,12.525,0,0,0,0,17.713l43.552,43.552a12.524,12.524,0,0,0,17.711-17.713L201.8,327.682c87.137-4.314,156.7-76.56,156.7-164.749Z" transform="translate(85.297 86.581)"/>
    <path id="Path_46" data-name="Path 46" d="M225.349,77.785a6.191,6.191,0,0,0-4.582-1.9H207.944a6.2,6.2,0,0,0-4.582,1.9,5.948,5.948,0,0,0-.784,7.006l6.854,10.333-3.208,27.069L212.543,139a1.929,1.929,0,0,0,3.624,0l6.319-16.809-3.208-27.069,6.854-10.333A5.945,5.945,0,0,0,225.349,77.785Z" transform="translate(108.914 38.246)"/>
    <g id="Ellipse_1" data-name="Ellipse 1" transform="translate(5.848 251.511)" fill="none" stroke="#000" stroke-width="12">
      <circle cx="73" cy="73" r="73" stroke="none"/>
      <circle cx="73" cy="73" r="67" fill="none"/>
    </g>
    <line id="Line_6238" data-name="Line 6238" x2="60.655" y2="66.876" transform="translate(119.941 373.261)" fill="none" stroke="#000" stroke-linecap="round" stroke-width="12"/>
  </g>
</svg>
