<svg id="partner_search__white_24px" xmlns="http://www.w3.org/2000/svg" width="24" height="24" viewBox="0 0 24 24">
  <g id="Group_70010" data-name="Group 70010">
    <rect id="Rectangle_148508" data-name="Rectangle 148508" width="24" height="24" fill="none"/>
    <rect id="Rectangle_148509" data-name="Rectangle 148509" width="24" height="24" fill="none"/>
  </g>
  <g id="Group_70012" data-name="Group 70012">
    <g id="Group_70011" data-name="Group 70011">
      <circle id="Ellipse_125" data-name="Ellipse 125" cx="4" cy="4" r="4" transform="translate(6 4)" fill="#fff"/>
      <path id="Path_61333" data-name="Path 61333" d="M10.35,14.01C7.62,13.91,2,15.27,2,18v1a1,1,0,0,0,1,1h8.54A5.95,5.95,0,0,1,10.35,14.01Z" fill="#fff"/>
      <path id="Path_61334" data-name="Path 61334" d="M19.43,18.02a3.908,3.908,0,0,0,.48-2.82,4,4,0,1,0-4.72,4.72,3.908,3.908,0,0,0,2.82-.48l1.86,1.86a1,1,0,0,0,1.41,0h0a1,1,0,0,0,0-1.41ZM16,18a2,2,0,1,1,2-2A2.006,2.006,0,0,1,16,18Z" fill="#fff"/>
    </g>
  </g>
</svg>
