<svg xmlns="http://www.w3.org/2000/svg" width="22.465" height="22.465" viewBox="0 0 22.465 22.465"><defs><style>.a{fill:#fff;}</style></defs><g transform="translate(0 0.001)"><g transform="translate(0 -0.001)"><g transform="translate(0 0)"><path class="a" d="M256.512,27.462h2.042a.51.51,0,0,0,.511-.511V21.846a.51.51,0,0,0-.511-.511h-2.042a.51.51,0,0,0-.511.511v5.106A.51.51,0,0,0,256.512,27.462Z" transform="translate(-243.747 -20.314)"/><path class="a" d="M22.316,4.234,18.231.149A.511.511,0,0,0,17.36.51V7.148A2.045,2.045,0,0,1,15.317,9.19H6.127A2.045,2.045,0,0,1,4.085,7.148V.51A.51.51,0,0,0,3.574,0H2.042A2.045,2.045,0,0,0,0,2.042V20.423a2.045,2.045,0,0,0,2.042,2.042H20.423a2.045,2.045,0,0,0,2.042-2.042V4.595A.51.51,0,0,0,22.316,4.234ZM19.4,20.933a.51.51,0,0,1-.511.511H3.574a.51.51,0,0,1-.511-.511v-9.19a.51.51,0,0,1,.511-.511H18.891a.51.51,0,0,1,.511.511Z" transform="translate(0 0.001)"/></g></g></g></svg>