<svg id="workflow_white_24px" xmlns="http://www.w3.org/2000/svg" width="24" height="24" viewBox="0 0 24 24">
  <rect id="Rectangle_148507" data-name="Rectangle 148507" width="24" height="24" fill="none"/>
  <path id="Path_61330" data-name="Path 61330" d="M17,11h3a2,2,0,0,0,2-2V5a2,2,0,0,0-2-2H17a2,2,0,0,0-2,2V6H9.01V5a2,2,0,0,0-2-2H4A2.006,2.006,0,0,0,2,5V9a2,2,0,0,0,2,2H7A2,2,0,0,0,9,9V8h2v7.01A2.992,2.992,0,0,0,13.99,18H15v1a2,2,0,0,0,2,2h3a2,2,0,0,0,2-2V15a2,2,0,0,0-2-2H17a2,2,0,0,0-2,2v1H13.99a1,1,0,0,1-.99-.99V8h2V9A2.006,2.006,0,0,0,17,11Z" fill="#fff"/>
</svg>
